<?xml version="1.0" encoding="utf-8"?>
<!-- Generator: Adobe Illustrator 27.5.0, SVG Export Plug-In . SVG Version: 6.00 Build 0)  -->
<svg version="1.1" xmlns="http://www.w3.org/2000/svg" xmlns:xlink="http://www.w3.org/1999/xlink" x="0px" y="0px"
	 viewBox="0 0 500 500" style="enable-background:new 0 0 500 500;" xml:space="preserve">
<g id="BACKGROUND">
<!--style="fill:rgb(40,42,45,0)" [Turns background transparent]
style="fill:#FDEDEE;" [Turns background white]-->
	<path style="fill:rgb(40,42,45,0)" d="M287.294,446.736l152.962-1.601c0,0,85.189-163.973-23.999-187.491
		c-97.495-20.999-138.589-83.191-152.559-147.491C242.951,14.657,60.188,2.448,38.849,168.046s20.819,278.69,20.819,278.69H287.294z
		"/>
</g>
<g id="OBJECTS">
	<g>
		<g>
			<g>
				<g>
					<path style="fill:#FFAC9D;" d="M214.898,282.927l54.848-4.302l-44.605-53.235c0,0-1.613-0.538-2.689-8.066
						c-0.456-3.194-4.84-33.877-4.84-33.877L216,180.222c0,0,5.915-4.84,11.83,1.075c5.915,5.915,18.283,29.037,18.283,29.037
						s74.208,54.148,85.503,83.873c10.217,26.886-117.767,36.577-117.767,36.577l3.764-47.858"/>
					<g>
						<path style="fill:#F19C7C;" d="M217.614,282.927l44.236-3.47c5.57,13.679,5.36,30.5,1.89,45.467
							c-26.463,4.064-49.89,5.861-49.89,5.861L217.614,282.927z"/>
						<path style="fill:#F19C7C;" d="M227.83,181.297c0.487,0.487,1.021,1.1,1.585,1.798c1.573,11.925,0.438,24.285-1.496,36.076
							c-0.406,2.478-0.822,5.138-1.349,7.827l-1.429-1.607c0,0-1.613-0.538-2.689-8.066c-0.456-3.194-4.84-33.877-4.84-33.877
							L216,180.222C216,180.222,221.915,175.382,227.83,181.297z"/>
					</g>
				</g>
				<g>
					<path style="fill:#6F96BD;" d="M215.463,338.672c2.868,0-11.471-59.508-11.471-59.508s16.849-8.424,51.263-9.141
						c0,0,4.122,31.905-3.764,63.452L215.463,338.672z"/>
					<path style="opacity:0.5;fill:#5086B2;" d="M209.995,305.227c3.724,1.634,7.418,3.352,11.163,4.962
						c7.731,3.324,15.663,5.841,23.868,7.729c3.05,0.702,6.114,1.315,9.183,1.893c-0.688,4.497-1.574,9.082-2.719,13.663
						l-36.028,5.198C217.015,338.672,213.524,321.227,209.995,305.227z"/>
				</g>
			</g>
			<g>
				<g>
					<path style="fill:#FFAC9D;" d="M211.662,360.012c1.869-27.569,1.013-55.239,0.761-82.872
						c-16.979,4.805-38.221,20.691-34.064-13.032c4.84-39.254-33.339-30.65-33.339-30.65s-0.538,48.933-5.377,48.933
						c-4.839,0-42.48-4.84-45.707,32.801C90.998,349.479,184.425,388.663,211.662,360.012z"/>
					<path style="fill:#F19C7C;" d="M180.156,282.039c-8.067-1.57-15.691-4.524-21.922-10.088
						c-7.255-6.478-10.384-15.081-13.609-23.757c0.324-8.25,0.396-14.738,0.396-14.738s38.178-8.604,33.339,30.65
						C177.202,273.495,178.017,279.031,180.156,282.039z"/>
				</g>
				<g>
					<path style="fill:#6F96BD;" d="M203.991,279.163c0,0,5.019,38.716-26.528,44.452c-31.547,5.736-55.206-40.867-55.206-40.867
						s-35.131,5.736-33.698,42.301c1.434,36.565,10.755,111.847,10.755,111.847l106.828-7.887l3.585-44.452
						c0,0,28.679-7.887,18.641-57.357c-10.038-49.471-5.019-53.773-5.019-53.773L203.991,279.163z"/>
					<path style="opacity:0.5;fill:#5086B2;" d="M100.689,328.837c5.413,7.778,11.825,15.076,18.257,22.018
						c12.925,13.949,27.243,26.681,43.117,37.198c14.376,9.525,29.126,17.003,45.687,21.019l-1.608,19.938l-106.828,7.887
						c0,0-9.321-75.282-10.755-111.847c-0.191-4.865,0.281-9.168,1.215-13.001C93.875,317.277,96.888,323.373,100.689,328.837z"/>
				</g>
			</g>
			<g>
				<g>
					<polygon style="fill:#352C38;" points="388.176,445.809 258.187,445.809 308.313,335.181 438.301,335.181 					"/>
					<rect x="185.727" y="436.147" style="fill:#352C38;" width="90.465" height="9.661"/>
					<polygon style="fill:#765E69;" points="396.959,445.809 266.97,445.809 317.095,335.181 447.084,335.181 					"/>
				</g>
				<g>
					<g>
						<path style="fill:#FFAC9D;" d="M77.483,345.794c0,0-11.403,73.308-3.258,89.598c10.001,20.002,132.497,11.403,132.497,11.403
							s56.474,3.258,1.086-5.43c0,0,64.619,8.688,3.801-3.801c0,0,58.646,5.43,3.801-4.344c0,0,47.243,2.715-13.033-6.516
							c0,0,36.925-8.145-10.86-4.344c0,0-44.528-7.602-73.308-13.576c0,0,8.145-49.958,7.059-58.103
							C124.183,342.536,77.483,345.794,77.483,345.794"/>
						<path style="fill:#F19C7C;" d="M119.126,368.87c-7.15,1.906-13.938,3.467-21.396,2.764
							c-7.982-0.753-15.585-2.785-22.997-5.444c1.424-11.875,2.749-20.397,2.749-20.397s46.7-3.258,47.786,4.887
							c0.338,2.531-0.217,9.101-1.141,16.953C122.452,368.002,120.783,368.429,119.126,368.87z"/>
					</g>
					<path style="fill:#6F96BD;" d="M129.613,362.085l-7.356-79.337c0,0-29.57-0.487-41.516,29.379
						c-11.947,29.866-10.86,47.243-10.86,47.243S97.575,371.316,129.613,362.085z"/>
				</g>
			</g>
		</g>
		<g>
			<g>
				<g>
					<g>
						<path style="fill:#965450;" d="M153.558,157.816c0,0,29.862-17.633,17.349-40.954c-12.514-23.321-46.357,6.541-32.137,25.027
							s18.202-29.293-8.532-25.027S121.705,173.742,153.558,157.816z"/>
						<g>
							<path style="fill:#965450;" d="M144.742,158.669c0,0,2.311-0.5,6.516-1.875c2.1-0.693,4.67-1.612,7.618-2.869
								c2.944-1.26,6.276-2.856,9.784-5.019c3.486-2.171,7.21-4.914,10.385-8.717c1.563-1.908,2.987-4.082,3.963-6.555
								c0.983-2.463,1.541-5.206,1.472-8.044c-0.06-2.839-0.685-5.736-1.768-8.567c-1.059-2.812-2.589-5.583-4.773-7.873
								c-2.165-2.301-5-4.064-8.192-4.955c-3.189-0.907-6.673-0.964-10.088-0.341c-3.417,0.638-6.794,1.935-9.866,3.844
								c-3.047,1.911-5.878,4.462-7.619,7.719c-0.854,1.621-1.377,3.438-1.316,5.265c0.017,0.455,0.068,0.909,0.152,1.358
								c0.084,0.445,0.209,0.944,0.33,1.375c0.257,0.906,0.601,1.792,1.033,2.63c0.854,1.679,2.114,3.158,3.698,4.186
								c1.577,1.027,3.476,1.595,5.374,1.543c1.873-0.043,3.834-0.725,4.948-2.151c0.549-0.704,0.826-1.577,0.798-2.476
								c-0.024-0.902-0.339-1.815-0.798-2.663c-2.027-3.427-5.209-6.293-8.714-8.505c-3.531-2.218-7.524-3.794-11.704-4.539
								c-4.179-0.743-8.553-0.622-12.742,0.45c-4.192,1.068-8.179,3.016-11.77,5.58c-0.899,0.661-1.783,1.283-2.591,2.038
								c-0.772,0.695-1.479,1.541-2.078,2.413c-1.215,1.761-1.887,3.852-2.059,5.997c-0.291,4.34,1.386,8.697,3.739,12.493
								c2.378,3.826,5.505,7.215,9.006,10.146c3.519,2.911,7.449,5.383,11.688,7.136c4.22,1.75,8.809,2.794,13.337,2.441
								c2.255-0.174,4.478-0.719,6.512-1.677c1.027-0.476,1.974-1.038,2.922-1.712c0.964-0.666,1.865-1.349,2.771-2.088
								c3.599-2.925,6.8-6.353,9.598-10.071c2.799-3.719,5.202-7.745,7.071-11.994c1.854-4.244,3.201-8.746,3.51-13.312
								c0.32-4.525-0.541-9.242-3.325-12.739c-2.721-3.544-7.115-5.463-11.493-6.268c-4.45-0.849-9.033-0.217-13.102,1.629
								c-4.086,1.826-7.61,4.754-10.552,8.098c-2.933,3.371-5.318,7.192-7.128,11.226c-1.811,4.031-3.079,8.293-3.554,12.597
								c-0.232,2.148-0.262,4.313,0.037,6.408c0.29,2.09,0.908,4.133,2.019,5.844c1.084,1.715,2.725,3.043,4.57,3.729
								c1.898,0.74,3.936,0.729,5.81,0.046c1.874-0.673,3.538-1.907,4.966-3.345c1.424-1.454,2.625-3.122,3.651-4.878
								c2.027-3.533,3.392-7.405,4.111-11.323c0.722-3.915,0.802-7.916,0.026-11.687c-0.779-3.754-2.514-7.285-5.249-9.781
								c-2.695-2.545-6.243-3.923-9.788-4.485c-1.799-0.278-3.55-0.392-5.361-0.323c-1.731,0.073-3.481,0.402-5.104,0.954
								c-3.27,1.099-6.063,3.219-8.098,5.827c-2.047,2.61-3.417,5.633-4.259,8.695c-1.695,6.152-1.467,12.416-0.159,17.947
								c1.336,5.543,3.827,10.441,7.095,14.146c1.629,1.855,3.433,3.421,5.322,4.67c1.894,1.244,3.868,2.166,5.812,2.822
								c1.944,0.665,3.869,1.024,5.687,1.223c0.909,0.124,1.798,0.131,2.655,0.181c0.858-0.02,1.689,0.015,2.487-0.057
								c3.197-0.188,5.876-0.761,8.013-1.314c2.134-0.577,3.738-1.134,4.805-1.54c1.068-0.407,1.619-0.618,1.619-0.618
								s-0.549,0.216-1.612,0.636c-1.063,0.418-2.662,0.994-4.792,1.596c-2.134,0.578-4.813,1.184-8.023,1.409
								c-0.8,0.081-1.637,0.056-2.5,0.085c-0.863-0.04-1.758-0.037-2.675-0.152c-1.835-0.18-3.782-0.52-5.756-1.171
								c-1.974-0.641-3.985-1.552-5.92-2.793c-1.931-1.245-3.781-2.815-5.458-4.681c-3.363-3.727-5.95-8.674-7.372-14.294
								c-1.392-5.61-1.705-11.976-0.038-18.318c0.834-3.156,2.235-6.291,4.353-9.034c2.106-2.738,5.045-5.005,8.496-6.188
								c1.724-0.595,3.522-0.951,5.4-1.041c1.797-0.082,3.704,0.022,5.543,0.301c3.691,0.56,7.472,1.988,10.38,4.698
								c2.948,2.659,4.814,6.421,5.652,10.352c0.838,3.953,0.775,8.101,0.053,12.156c-0.721,4.059-2.101,8.064-4.194,11.765
								c-1.061,1.841-2.31,3.605-3.826,5.172c-1.521,1.549-3.326,2.926-5.469,3.713c-2.118,0.806-4.636,0.827-6.756-0.009
								c-2.197-0.805-4.074-2.348-5.323-4.303c-1.265-1.946-1.934-4.188-2.251-6.428c-0.325-2.249-0.294-4.526-0.057-6.772
								c0.489-4.497,1.792-8.894,3.651-13.057c1.86-4.165,4.309-8.112,7.348-11.619c3.05-3.479,6.726-6.561,11.067-8.514
								c4.304-1.978,9.305-2.666,14.001-1.775c2.373,0.445,4.679,1.126,6.847,2.248c2.163,1.097,4.147,2.646,5.667,4.591
								c1.528,1.936,2.586,4.229,3.146,6.607c0.564,2.38,0.716,4.833,0.552,7.242c-0.319,4.831-1.715,9.495-3.618,13.879
								c-1.922,4.385-4.37,8.529-7.253,12.345c-2.883,3.813-6.177,7.329-9.904,10.346c-0.921,0.75-1.902,1.488-2.878,2.159
								c-0.973,0.69-2.059,1.336-3.17,1.845c-2.23,1.044-4.656,1.63-7.083,1.812c-4.879,0.367-9.695-0.761-14.084-2.588
								c-4.408-1.834-8.456-4.395-12.084-7.409c-3.609-3.035-6.834-6.538-9.314-10.544c-1.24-1.998-2.285-4.132-3.005-6.387
								c-0.735-2.246-1.098-4.645-0.935-7.039c0.192-2.386,0.963-4.759,2.328-6.728c0.683-0.986,1.434-1.887,2.34-2.701
								c0.843-0.784,1.803-1.462,2.715-2.128c3.723-2.647,7.886-4.677,12.279-5.786c4.391-1.115,8.984-1.233,13.355-0.446
								c4.378,0.782,8.523,2.47,12.189,4.797c3.646,2.348,6.918,5.281,9.122,9.05c0.521,0.978,0.91,2.079,0.936,3.253
								c0.035,1.168-0.356,2.372-1.083,3.284c-1.484,1.843-3.792,2.554-5.919,2.603c-2.162,0.045-4.29-0.611-6.054-1.774
								c-1.77-1.163-3.156-2.823-4.074-4.657c-0.466-0.916-0.829-1.872-1.099-2.848c-0.139-0.512-0.248-0.96-0.344-1.472
								c-0.093-0.509-0.147-1.022-0.162-1.536c-0.055-2.064,0.546-4.064,1.476-5.803c1.9-3.492,4.875-6.109,8.043-8.076
								c3.196-1.959,6.688-3.276,10.232-3.915c3.541-0.624,7.167-0.547,10.501,0.423c3.338,0.949,6.309,2.83,8.534,5.257
								c2.252,2.416,3.79,5.283,4.848,8.186c1.068,2.885,1.685,5.88,1.713,8.796c0.039,2.919-0.567,5.736-1.601,8.246
								c-1.028,2.522-2.503,4.72-4.11,6.637c-3.263,3.822-7.043,6.538-10.568,8.682c-3.548,2.134-6.905,3.697-9.868,4.928
								c-2.967,1.228-5.55,2.12-7.658,2.79C147.058,158.195,144.742,158.669,144.742,158.669z"/>
						</g>
						<g>
							<path style="fill:#965450;" d="M191.803,110.734c0,0,0.368,0.951,0.779,2.688c0.206,0.868,0.414,1.931,0.603,3.162
								c0.165,1.232,0.345,2.631,0.36,4.168c0.033,1.535-0.001,3.206-0.227,4.96c-0.078,0.881-0.272,1.771-0.426,2.688
								c-0.224,0.902-0.428,1.834-0.759,2.745c-0.582,1.847-1.426,3.682-2.48,5.425c-1.012,1.776-2.368,3.364-3.78,4.875
								c-1.506,1.419-3.098,2.759-4.835,3.814c-0.429,0.271-0.857,0.54-1.282,0.809c-0.445,0.234-0.887,0.466-1.327,0.698
								c-0.442,0.226-0.872,0.471-1.315,0.678c-0.45,0.193-0.896,0.385-1.339,0.575c-0.443,0.19-0.881,0.378-1.316,0.564
								c-0.443,0.163-0.889,0.307-1.328,0.452c-0.883,0.276-1.727,0.611-2.587,0.8c-0.852,0.218-1.68,0.429-2.481,0.634
								c-0.805,0.182-1.594,0.309-2.345,0.457c-1.498,0.324-2.896,0.457-4.129,0.6c-0.617,0.068-1.192,0.146-1.727,0.192
								c-0.536,0.033-1.028,0.063-1.473,0.091c-1.777,0.096-2.792,0.151-2.792,0.151s1.008-0.131,2.771-0.359
								c0.44-0.054,0.928-0.113,1.459-0.177c0.529-0.077,1.097-0.19,1.706-0.294c1.216-0.218,2.591-0.434,4.064-0.797
								c0.738-0.174,1.513-0.327,2.302-0.536c0.782-0.23,1.591-0.469,2.423-0.714c0.84-0.217,1.657-0.577,2.512-0.879
								c0.426-0.156,0.856-0.314,1.291-0.474c0.423-0.187,0.849-0.377,1.279-0.568c0.43-0.191,0.864-0.383,1.301-0.576
								c0.43-0.207,0.845-0.451,1.272-0.676c0.425-0.23,0.853-0.461,1.282-0.693c0.409-0.265,0.82-0.532,1.233-0.8
								c1.673-1.041,3.186-2.357,4.622-3.732c1.371-1.435,2.694-2.942,3.686-4.638c1.033-1.663,1.868-3.42,2.452-5.199
								c0.612-1.768,1.039-3.539,1.294-5.244c0.283-1.702,0.375-3.339,0.397-4.849c0.027-1.512-0.064-2.898-0.153-4.127
								c-0.114-1.227-0.258-2.294-0.411-3.167C192.08,111.715,191.803,110.734,191.803,110.734z"/>
						</g>
						<g>
							<path style="fill:#965450;" d="M96.087,170.96c0.586-0.745,1.23-1.449,1.922-2.1c0.335-0.339,0.692-0.653,1.059-0.955
								c0.369-0.3,0.713-0.634,1.103-0.907c0.765-0.566,1.518-1.154,2.338-1.643l1.209-0.768l1.262-0.676
								c0.423-0.221,0.837-0.463,1.272-0.66l1.319-0.561l1.321-0.559l1.363-0.447c0.91-0.295,1.812-0.623,2.753-0.804
								c0.934-0.203,1.86-0.461,2.804-0.618l2.846-0.39c0.947-0.171,1.91-0.118,2.865-0.178c0.956-0.014,1.915-0.122,2.87-0.029
								l2.867,0.158c0.96,0.015,1.9,0.204,2.848,0.329l2.839,0.411c0.938,0.18,1.863,0.423,2.795,0.631l2.792,0.651l5.106,1.19
								l-5.261-0.15c-2.08-0.059-4.109-0.295-6.146-0.581c-2.032-0.292-4.051-0.667-6.05-1.134
								c-0.999-0.236-1.995-0.484-2.982-0.769c-0.99-0.272-1.97-0.584-2.943-0.912c-0.976-0.323-1.935-0.692-2.893-1.065
								c-0.949-0.397-1.892-0.807-2.812-1.269c-0.931-0.437-1.828-0.946-2.721-1.454l-1.321-0.799l-1.279-0.866
								c-0.434-0.277-0.827-0.612-1.241-0.918c-0.414-0.306-0.817-0.626-1.199-0.972c-0.796-0.654-1.522-1.385-2.251-2.111
								c-0.679-0.774-1.376-1.532-1.964-2.377c-0.638-0.806-1.148-1.703-1.686-2.574c-0.47-0.912-0.961-1.811-1.319-2.772
								c-0.421-0.934-0.659-1.934-0.974-2.901c0.369,0.952,0.659,1.93,1.129,2.835c0.393,0.938,0.917,1.81,1.417,2.69
								c0.567,0.839,1.104,1.7,1.765,2.467c0.61,0.807,1.329,1.521,2.02,2.255c0.733,0.694,1.461,1.392,2.258,2.013
								c0.382,0.329,0.785,0.633,1.199,0.923c0.413,0.289,0.805,0.608,1.238,0.869l1.274,0.817l1.315,0.751
								c0.889,0.476,1.78,0.953,2.705,1.359c0.911,0.435,1.854,0.798,2.786,1.187c0.945,0.358,1.89,0.713,2.852,1.023
								c0.96,0.315,1.926,0.614,2.904,0.873c0.974,0.272,1.958,0.508,2.944,0.733c1.974,0.443,3.969,0.797,5.974,1.068
								c2.001,0.271,4.031,0.462,6.025,0.551l-0.155,1.04l-2.742-0.662c-0.916-0.213-1.825-0.461-2.746-0.645l-2.787-0.426
								c-0.93-0.131-1.855-0.326-2.795-0.347l-2.812-0.178c-0.937-0.101-1.875,0-2.813,0.005l-1.407,0.039
								c-0.47-0.003-0.939,0.022-1.403,0.09l-2.799,0.312c-0.929,0.131-1.841,0.362-2.764,0.537
								c-0.93,0.154-1.821,0.455-2.721,0.722l-1.351,0.405l-1.311,0.518l-1.312,0.52c-0.432,0.185-0.847,0.409-1.273,0.607
								l-1.272,0.615l-1.222,0.708c-0.83,0.45-1.597,1-2.378,1.531c-0.398,0.255-0.751,0.571-1.129,0.854
								c-0.378,0.284-0.742,0.585-1.092,0.903C97.391,169.584,96.714,170.248,96.087,170.96z"/>
						</g>
					</g>
					<path style="fill:#FFA65B;" d="M168.146,151.146c0,0-4.554-7.373-17.348-3.903c-12.794,3.47-19.517,14.312-17.565,20.167
						C135.184,173.265,168.146,151.146,168.146,151.146z"/>
				</g>
				<g>
					<g>
						<path style="fill:#965450;" d="M119.389,188.167c0,0-11.472,39.075,30.113,60.584l-8.245-59.15L119.389,188.167z"/>
						<path style="fill:#FFAC9D;" d="M188.462,162.177c0,0,46.147,2.791,34.528,70.98c-10.262,60.225-76.895,50.546-80.627-0.538
							C138.552,180.431,157.032,161.102,188.462,162.177z"/>
					</g>
					<g>
						<g>
							<path style="fill:#965450;" d="M218.689,182.431c0,0-16.388-40.384-58.074-31.188
								c-48.754,10.755-44.452,57.716-40.509,63.093c3.943,5.377,25.452-5.019,25.452-5.019s5.019,15.415-2.151,24.377
								c0,0,18.641-8.604,6.094-31.188c0,0,11.83,12.188,6.453,23.66c0,0,12.188-15.056-4.66-28.679c0,0,9.679-2.151,10.037-18.283
								C161.332,179.205,194.671,168.45,218.689,182.431z"/>
							<g>
								<g>
									<path style="fill:#965450;" d="M216.107,180.78c0,0,0.905-0.684,2.535-1.722c1.639-1.036,4.025-2.449,7.039-3.847
										c1.514-0.681,3.167-1.398,4.968-2.021c1.789-0.652,3.726-1.207,5.752-1.678c2.03-0.459,4.164-0.78,6.348-0.939
										c2.184-0.105,4.422-0.124,6.629,0.211c1.111,0.104,2.191,0.401,3.276,0.624c0.541,0.12,1.062,0.317,1.591,0.472
										c0.522,0.178,1.062,0.297,1.56,0.53c1.006,0.433,2.033,0.794,2.96,1.338c0.473,0.252,0.942,0.502,1.409,0.75
										c0.451,0.273,0.881,0.575,1.317,0.857c0.43,0.292,0.871,0.559,1.279,0.863c0.397,0.32,0.79,0.636,1.179,0.949
										c0.384,0.318,0.783,0.611,1.142,0.94c0.35,0.339,0.695,0.674,1.036,1.004c0.34,0.33,0.676,0.656,1.006,0.976
										c0.318,0.332,0.602,0.687,0.897,1.02c0.569,0.685,1.175,1.301,1.654,1.974c0.968,1.337,1.893,2.535,2.544,3.707
										c0.691,1.146,1.321,2.127,1.728,2.998c0.874,1.706,1.373,2.681,1.373,2.681s-0.538-0.953-1.48-2.621
										c-0.44-0.851-1.109-1.804-1.842-2.915c-0.696-1.137-1.664-2.288-2.651-3.59c-0.491-0.653-1.108-1.245-1.688-1.906
										c-0.3-0.321-0.59-0.663-0.912-0.982c-0.334-0.307-0.673-0.618-1.017-0.934c-0.344-0.315-0.692-0.635-1.044-0.959
										c-0.361-0.313-0.76-0.589-1.145-0.891c-0.389-0.296-0.782-0.595-1.178-0.898c-0.407-0.287-0.846-0.535-1.273-0.808
										c-0.433-0.264-0.859-0.547-1.305-0.801c-0.461-0.229-0.924-0.459-1.391-0.691c-0.913-0.505-1.923-0.826-2.906-1.219
										c-0.487-0.213-1.015-0.313-1.524-0.471c-0.516-0.135-1.022-0.313-1.549-0.414c-1.056-0.186-2.103-0.444-3.179-0.517
										c-2.133-0.296-4.298-0.246-6.411-0.117c-2.114,0.184-4.18,0.523-6.148,0.996c-1.965,0.485-3.843,1.051-5.581,1.712
										c-1.749,0.63-3.354,1.354-4.825,2.039c-1.457,0.716-2.787,1.386-3.933,2.04c-1.154,0.64-2.134,1.242-2.934,1.747
										c-1.602,1.023-2.444,1.662-2.444,1.662L216.107,180.78z"/>
								</g>
								<g>
									<path style="fill:#965450;" d="M215.46,180.648c0,0,0.121-0.336,0.347-0.967c0.232-0.62,0.581-1.521,1.062-2.651
										c0.967-2.255,2.44-5.443,4.659-9.029c1.115-1.788,2.428-3.669,3.999-5.521c1.563-1.855,3.424-3.665,5.63-5.192
										c2.208-1.5,4.826-2.699,7.662-3.022c2.751-0.323,5.639-0.21,8.398,0.364c2.762,0.586,5.458,1.722,7.61,3.557
										c1.059,0.925,1.987,2.035,2.519,3.362c0.254,0.664,0.398,1.389,0.328,2.118c-0.064,0.726-0.376,1.441-0.872,1.964
										c-0.498,0.527-1.113,0.872-1.768,1.078c-0.647,0.219-1.505,0.155-2.069-0.286c-0.583-0.426-0.905-1.054-1.098-1.663
										c-0.191-0.617-0.269-1.247-0.251-1.861c0.042-2.47,1.202-4.648,2.702-6.111c0.754-0.737,1.595-1.319,2.461-1.726
										c0.418-0.236,0.87-0.364,1.285-0.54c0.435-0.121,0.852-0.261,1.267-0.344c1.661-0.351,3.151-0.371,4.356-0.274
										c1.208,0.082,2.149,0.235,2.782,0.37c0.635,0.127,0.973,0.195,0.973,0.195s-0.34-0.06-0.978-0.171
										c-0.635-0.119-1.579-0.249-2.783-0.301c-1.201-0.068-2.68-0.01-4.306,0.375c-1.612,0.385-3.399,1.189-4.821,2.654
										c-1.41,1.44-2.46,3.563-2.439,5.873c-0.004,0.572,0.086,1.15,0.268,1.691c0.181,0.537,0.479,1.051,0.921,1.352
										c0.874,0.641,2.215,0.055,2.992-0.77c0.8-0.867,0.814-2.199,0.326-3.331c-0.491-1.146-1.359-2.15-2.362-2.982
										c-2.04-1.656-4.616-2.679-7.257-3.17c-2.663-0.474-5.372-0.512-8.009-0.133c-2.579,0.363-4.946,1.521-6.967,2.973
										c-2.017,1.479-3.734,3.234-5.179,5.046c-1.452,1.809-2.668,3.652-3.698,5.407c-2.051,3.522-3.402,6.662-4.279,8.87
										c-0.437,1.107-0.751,1.986-0.956,2.584c-0.195,0.594-0.299,0.91-0.299,0.91L215.46,180.648z"/>
								</g>
								<g>
									<path style="fill:#965450;" d="M248.802,114.319c0,0,0.767,1.126,1.831,3.257c0.526,1.067,1.121,2.388,1.668,3.957
										c0.548,1.566,1.051,3.389,1.249,5.439c0.198,2.032,0.07,4.355-0.929,6.546c-0.507,1.08-1.197,2.125-2.1,3.008
										c-0.914,0.858-1.947,1.654-3.118,2.224c-0.563,0.334-1.189,0.535-1.789,0.812c-0.614,0.219-1.264,0.424-1.874,0.626
										c-1.264,0.385-2.494,0.805-3.706,1.322c-2.438,1.021-4.799,2.323-7.004,3.847c-4.395,3.074-8.124,7.054-10.74,11.296
										c-2.628,4.24-4.165,8.689-4.691,12.577c-0.276,1.944-0.324,3.744-0.236,5.328c0.054,1.589,0.311,2.955,0.533,4.072
										c0.226,1.122,0.61,1.934,0.504,2.62c-0.081,0.679-0.427,1.18-0.427,1.18s-0.569-0.141-1.07-0.664
										c-0.56-0.505-0.685-1.493-1.022-2.679c-0.26-1.207-0.565-2.687-0.645-4.411c-0.085-1.719-0.045-3.672,0.284-5.761
										c0.348-2.085,0.947-4.299,1.837-6.532c0.88-2.237,2.08-4.479,3.547-6.63c2.937-4.297,6.901-8.284,11.526-11.285
										c2.303-1.509,4.757-2.783,7.278-3.768c2.525-1.072,5.173-1.408,7.389-2.556c1.137-0.518,2.129-1.249,3.017-2.04
										c0.874-0.814,1.549-1.784,2.057-2.8c1.002-2.057,1.192-4.307,1.045-6.307c-0.145-2.016-0.597-3.835-1.103-5.404
										c-0.505-1.572-1.065-2.903-1.564-3.98C249.541,115.465,248.802,114.319,248.802,114.319z"/>
								</g>
								<g>
									<path style="fill:#965450;" d="M146.466,197.744c0,0,0.135-0.047,0.39-0.134c0.302-0.106,0.664-0.182,1.152-0.276
										c0.484-0.074,1.072-0.138,1.745-0.121c0.336-0.021,0.69,0.047,1.062,0.084c0.186,0.022,0.376,0.044,0.57,0.068
										c0.19,0.048,0.384,0.098,0.582,0.148c0.805,0.16,1.602,0.539,2.43,0.925c0.769,0.492,1.596,0.978,2.28,1.673
										c0.768,0.609,1.342,1.419,1.986,2.181c0.604,0.79,1.078,1.678,1.62,2.514c0.432,0.891,0.863,1.782,1.288,2.66
										c0.367,0.898,0.669,1.803,0.991,2.664c0.346,0.854,0.541,1.722,0.767,2.531c0.219,0.81,0.426,1.575,0.618,2.282
										c0.582,2.864,0.969,4.773,0.969,4.773s-0.124-0.471-0.34-1.294c-0.222-0.822-0.513-2.002-0.909-3.402
										c-0.242-0.686-0.503-1.43-0.78-2.217c-0.283-0.783-0.537-1.624-0.94-2.437c-0.379-0.822-0.739-1.685-1.159-2.53
										c-0.472-0.814-0.951-1.642-1.43-2.469c-0.591-0.743-1.112-1.542-1.736-2.217c-0.658-0.641-1.244-1.335-1.968-1.798
										c-0.656-0.562-1.401-0.893-2.07-1.252c-0.715-0.245-1.378-0.501-2.025-0.56c-0.158-0.027-0.313-0.053-0.465-0.078
										c-0.154-0.001-0.303-0.003-0.45-0.004c-0.291,0.005-0.566-0.027-0.822,0.024c-0.515,0.043-0.948,0.142-1.3,0.234
										c-0.337,0.106-0.625,0.202-0.745,0.266c-0.126,0.05-0.268,0.127-0.261,0.122L146.466,197.744z"/>
								</g>
								<g>
									<path style="fill:#965450;" d="M162.765,199.997c0.339-1.159,0.584-2.339,0.797-3.52c0.205-1.182,0.345-2.374,0.409-3.565
										c0.062-1.191,0.084-2.38-0.007-3.56c-0.036-0.59-0.113-1.176-0.202-1.757c-0.09-0.582-0.22-1.153-0.361-1.721
										c-0.164-0.561-0.328-1.12-0.549-1.656c-0.204-0.542-0.459-1.064-0.728-1.571c-0.262-0.514-0.582-0.99-0.905-1.464
										c-0.355-0.449-0.697-0.909-1.111-1.307c-0.38-0.428-0.838-0.778-1.267-1.154c-0.471-0.327-0.912-0.694-1.42-0.969
										c-0.482-0.313-1.004-0.561-1.525-0.81c-0.517-0.257-1.075-0.432-1.61-0.653l0.443-1.351c0.699,0.23,1.329,0.483,1.97,0.765
										c0.633,0.287,1.257,0.59,1.863,0.926c0.621,0.309,1.199,0.695,1.794,1.049c0.593,0.359,1.143,0.786,1.715,1.176
										c0.563,0.404,1.077,0.876,1.614,1.314c0.534,0.443,0.997,0.968,1.498,1.448c0.514,0.468,0.914,1.047,1.367,1.572
										c0.215,0.273,0.453,0.528,0.648,0.815l0.56,0.881c0.366,0.591,0.771,1.156,1.039,1.802
										c0.291,0.631,0.611,1.246,0.873,1.885l0.637,1.975c0.253,0.645,0.296,1.346,0.438,2.017
										c0.094,0.681,0.279,1.35,0.254,2.041l0.047,2.052c0.058,0.682-0.093,1.359-0.145,2.036l-0.25,2.019l0.021-2.031
										c-0.005-0.673,0.088-1.346-0.026-2.014l-0.215-1.999c-0.025-0.671-0.277-1.306-0.405-1.956
										c-0.172-0.642-0.242-1.311-0.521-1.919l-0.705-1.856c-0.282-0.597-0.62-1.168-0.924-1.751
										c-0.281-0.598-0.698-1.116-1.072-1.656l-0.569-0.805c-0.199-0.261-0.427-0.501-0.639-0.752
										c-0.444-0.486-0.83-1.022-1.332-1.453c-0.488-0.442-0.935-0.927-1.455-1.334c-0.523-0.402-1.02-0.834-1.557-1.217
										c-0.549-0.365-1.073-0.768-1.641-1.104c-0.571-0.331-1.123-0.695-1.717-0.983c-0.58-0.316-1.175-0.598-1.778-0.865
										c-0.596-0.264-1.221-0.522-1.806-0.719l0.443-1.351c0.578,0.242,1.173,0.438,1.735,0.721
										c0.565,0.275,1.129,0.552,1.659,0.9c0.551,0.309,1.044,0.712,1.553,1.086c0.468,0.427,0.96,0.83,1.372,1.315
										c0.444,0.453,0.813,0.972,1.19,1.479c0.344,0.532,0.681,1.066,0.954,1.636c0.286,0.56,0.523,1.147,0.716,1.741
										c0.208,0.592,0.354,1.199,0.497,1.804c0.12,0.61,0.225,1.221,0.289,1.836c0.063,0.614,0.112,1.23,0.118,1.845
										c0.021,0.615,0.001,1.229-0.03,1.84c-0.031,0.611-0.086,1.221-0.172,1.825
										C164.279,195.389,163.703,197.766,162.765,199.997z"/>
								</g>
								<g>
									<path style="fill:#965450;" d="M145.897,245.166c-2.73-1.166-5.338-2.605-7.857-4.178c-2.515-1.58-4.93-3.325-7.21-5.234
										c-4.555-3.816-8.589-8.318-11.615-13.473c-3.02-5.15-4.954-10.952-5.56-16.907c-0.31-2.975-0.308-5.983-0.023-8.959
										c0.298-2.983,0.792-5.918,1.652-8.811c0.835-2.879,1.992-5.668,3.467-8.284c1.475-2.614,3.245-5.063,5.266-7.279
										c4.035-4.453,8.992-7.987,14.299-10.729c5.316-2.749,10.994-4.728,16.78-6.172c2.896-0.717,5.826-1.296,8.775-1.742
										c2.955-0.438,5.908-0.774,8.92-0.89l0.038,1.055c-2.925,0.183-5.871,0.507-8.791,0.905
										c-2.923,0.404-5.835,0.889-8.723,1.484c-5.774,1.19-11.485,2.753-16.934,4.974c-2.72,1.114-5.372,2.398-7.874,3.923
										c-2.503,1.518-4.845,3.31-6.855,5.414c-1.981,2.109-3.504,4.646-4.66,7.323c-1.157,2.683-1.967,5.518-2.503,8.401
										c-1.072,5.774-1.052,11.739-0.199,17.559c0.864,5.824,2.611,11.523,5.185,16.826c1.29,2.65,2.772,5.208,4.464,7.626
										c1.696,2.413,3.576,4.702,5.654,6.802C135.727,239.025,140.606,242.508,145.897,245.166z M145.897,245.166
										c-5.331-2.576-10.277-5.99-14.497-10.173c-4.229-4.169-7.754-9.057-10.408-14.384c-2.645-5.332-4.461-11.074-5.386-16.959
										c-0.914-5.882-0.989-11.925,0.051-17.815c0.52-2.941,1.319-5.847,2.507-8.606c1.182-2.755,2.741-5.382,4.815-7.603
										c2.078-2.188,4.479-4.028,7.033-5.587c2.552-1.565,5.245-2.876,8.001-4.013c5.52-2.265,11.281-3.855,17.099-5.07
										c2.911-0.607,5.843-1.103,8.786-1.517c2.947-0.407,5.892-0.744,8.878-0.931l0.039,1.055
										c-2.92,0.105-5.874,0.431-8.79,0.856c-2.92,0.434-5.82,1-8.687,1.701c-5.726,1.413-11.339,3.356-16.58,6.049
										c-5.232,2.686-10.102,6.144-14.06,10.489c-1.982,2.164-3.717,4.552-5.165,7.102c-1.441,2.555-2.607,5.265-3.443,8.082
										c-0.855,2.792-1.379,5.732-1.694,8.648c-0.306,2.927-0.333,5.886-0.053,8.815c0.546,5.863,2.398,11.592,5.338,16.707
										c2.923,5.13,6.847,9.668,11.326,13.535c2.242,1.935,4.622,3.711,7.107,5.326
										C140.603,242.481,143.186,243.959,145.897,245.166z"/>
								</g>
								<g>
									<path style="fill:#965450;" d="M157.03,153.036c0,0,1.102-0.472,3.097-1.119c1.997-0.632,4.884-1.47,8.433-2.106
										c3.545-0.611,7.752-1.117,12.279-0.957c2.26,0.095,4.595,0.317,6.938,0.757c2.334,0.461,4.696,1.06,6.946,1.977
										c2.274,0.86,4.395,2.077,6.398,3.376c1.941,1.392,3.781,2.88,5.306,4.57c0.386,0.417,0.769,0.831,1.149,1.24
										c0.36,0.425,0.681,0.877,1.012,1.312c0.328,0.437,0.652,0.869,0.972,1.296c0.296,0.443,0.561,0.899,0.837,1.339
										c1.149,1.734,1.955,3.53,2.742,5.152c0.656,1.682,1.334,3.195,1.698,4.617c0.411,1.405,0.822,2.611,1.01,3.646
										c0.44,2.048,0.691,3.219,0.691,3.219s-0.325-1.151-0.893-3.165c-0.239-1.018-0.71-2.2-1.187-3.571
										c-0.434-1.388-1.184-2.851-1.869-4.494c-0.827-1.575-1.672-3.316-2.85-4.979c-0.284-0.422-0.556-0.86-0.858-1.284
										c-0.326-0.407-0.655-0.818-0.988-1.234c-0.339-0.411-0.659-0.845-1.011-1.258c-0.373-0.394-0.75-0.792-1.13-1.194
										c-1.497-1.629-3.298-3.051-5.191-4.382c-1.955-1.238-4.019-2.394-6.233-3.21c-2.173-0.913-4.465-1.519-6.74-1.992
										c-2.283-0.453-4.569-0.694-6.787-0.81c-2.22-0.074-4.373-0.096-6.412,0.041c-2.041,0.101-3.962,0.337-5.731,0.58
										c-1.764,0.279-3.382,0.544-4.804,0.85c-1.425,0.291-2.656,0.597-3.667,0.861
										C158.165,152.652,157.03,153.036,157.03,153.036z"/>
								</g>
							</g>
						</g>
						<path style="fill:#FFAC9D;" d="M145.373,207.395c0,0-2.429-19.147-15.293-11.518c-12.864,7.629,4.266,38.95,14.77,28.721
							C149.611,219.96,145.373,207.395,145.373,207.395z"/>
					</g>
				</g>
			</g>
			<g>
				<g>
					<path style="fill:#FC6A5A;" d="M198.255,212.544c-0.05,1.107-0.069,2.201-0.078,3.29c0.002,1.089-0.007,2.171,0.048,3.249
						c0.024,1.076,0.091,2.149,0.19,3.212c0.046,0.532,0.074,1.065,0.159,1.591l0.209,1.579l0.272,1.563
						c0.083,0.523,0.247,1.024,0.356,1.539l0.169,0.771l0.231,0.751c0.163,0.497,0.287,1.012,0.482,1.496l0.565,1.464
						c0.173,0.497,0.455,0.938,0.676,1.412c0.229,0.471,0.442,0.954,0.743,1.383c0.275,0.446,0.562,0.886,0.83,1.345l0.516,0.88
						l-0.817,0.233c-1.97,0.561-3.953,1.09-5.985,1.486c1.792-1.037,3.633-1.942,5.487-2.815l-0.301,1.113
						c-0.369-0.43-0.721-0.877-1.084-1.32c-0.38-0.433-0.689-0.911-0.982-1.402c-0.281-0.495-0.624-0.965-0.854-1.487l-0.723-1.554
						c-0.225-0.525-0.375-1.075-0.566-1.612l-0.27-0.811l-0.205-0.826c-0.121-0.554-0.27-1.104-0.349-1.664l-0.248-1.676
						c-0.074-0.559-0.09-1.123-0.128-1.684c-0.047-0.561-0.036-1.123-0.042-1.683c-0.016-0.56,0.007-1.12,0.052-1.678
						c0.038-0.558,0.064-1.115,0.134-1.669c0.14-1.107,0.295-2.209,0.557-3.291C197.534,214.647,197.85,213.576,198.255,212.544z"/>
				</g>
				<g>
					<path style="fill:#76413B;" d="M191.803,194.978c0,0,0.195,0.504,0.236,1.452c0.012,0.47,0.018,1.061-0.121,1.72
						c-0.105,0.669-0.333,1.414-0.706,2.182c-0.168,0.395-0.425,0.758-0.656,1.166c-0.258,0.385-0.577,0.744-0.888,1.135
						c-0.349,0.343-0.716,0.701-1.109,1.04c-0.41,0.307-0.838,0.626-1.287,0.916c-0.46,0.262-0.937,0.519-1.424,0.772
						c-0.498,0.206-1.005,0.41-1.523,0.604c-0.518,0.187-1.047,0.312-1.58,0.454c-0.277,0.066-0.51,0.141-0.826,0.2l-0.755,0.143
						c-0.979,0.18-2.1,0.333-3.148,0.412c-1.049,0.084-2.096,0.103-3.093,0.058c-0.998-0.031-1.951-0.143-2.765-0.202
						c-0.822-0.062-1.491-0.067-2.127,0.07c-0.313,0.09-0.623,0.174-0.917,0.309c-0.303,0.104-0.586,0.246-0.852,0.389
						c-0.539,0.263-0.997,0.568-1.396,0.779c-0.763,0.483-1.233,0.741-1.233,0.741s0.268-0.454,0.8-1.214
						c0.297-0.355,0.603-0.836,1.088-1.293c0.449-0.485,1.036-1.004,1.831-1.434c0.8-0.429,1.8-0.678,2.738-0.775
						c0.948-0.107,1.854-0.148,2.779-0.231c0.926-0.069,1.863-0.188,2.822-0.31c0.957-0.144,1.871-0.267,2.906-0.474l0.758-0.129
						c0.189-0.031,0.448-0.104,0.668-0.153c0.453-0.122,0.929-0.182,1.366-0.321c0.434-0.145,0.869-0.276,1.304-0.402
						c0.407-0.171,0.808-0.343,1.215-0.498c0.387-0.181,0.741-0.399,1.118-0.577c0.35-0.209,0.667-0.449,1.006-0.655
						c0.3-0.25,0.593-0.494,0.875-0.729c0.25-0.266,0.54-0.5,0.748-0.776c0.436-0.539,0.83-1.071,1.102-1.594
						c0.288-0.516,0.497-1.003,0.652-1.416C191.713,195.507,191.803,194.978,191.803,194.978z"/>
				</g>
				<g>
					<path style="fill:#76413B;" d="M222.991,215.053c0,0-0.423,0.023-1.144,0.001c-0.36-0.014-0.8-0.021-1.293-0.067
						c-0.494-0.01-1.061-0.151-1.678-0.29c-0.608-0.155-1.329-0.258-1.986-0.543c-0.67-0.267-1.403-0.517-2.108-0.881
						c-0.69-0.389-1.433-0.762-2.117-1.247c-0.667-0.507-1.387-0.979-1.995-1.579c-0.618-0.59-1.243-1.173-1.757-1.841
						c-0.56-0.626-1.016-1.318-1.447-1.986c-0.434-0.666-0.769-1.364-1.087-2.012c-0.285-0.671-0.543-1.302-0.713-1.914
						c-0.207-0.593-0.32-1.165-0.419-1.665c-0.101-0.5-0.143-0.947-0.173-1.312c-0.058-0.732-0.007-1.155-0.007-1.155
						s0.224,0.346,0.616,0.951c0.397,0.591,0.951,1.418,1.644,2.359c0.33,0.479,0.748,0.957,1.135,1.484
						c0.423,0.504,0.841,1.048,1.314,1.574c0.242,0.258,0.474,0.53,0.711,0.802c0.236,0.273,0.512,0.516,0.759,0.787
						c0.497,0.541,1.048,1.041,1.596,1.543c0.515,0.54,1.142,0.95,1.681,1.451c0.568,0.466,1.173,0.865,1.724,1.312
						c0.57,0.417,1.162,0.766,1.699,1.152c0.536,0.404,1.075,0.664,1.564,0.988c0.504,0.284,0.929,0.628,1.387,0.842
						c0.442,0.225,0.817,0.453,1.129,0.634C222.646,214.808,222.991,215.053,222.991,215.053z"/>
				</g>
				<path style="fill:#FFFFFF;" d="M191.803,253.053c0,0-10.037-22.585-22.943-4.302L191.803,253.053z"/>
				<path style="fill:#352C38;" d="M204.355,221.508c-0.267,4.05,0.718,7.412,2.199,7.51c1.482,0.098,2.899-3.106,3.166-7.156
					c0.267-4.05-0.718-7.412-2.2-7.51C206.04,214.255,204.622,217.458,204.355,221.508z"/>
				<path style="fill:#352C38;" d="M176.752,219.357c-0.267,4.05,0.718,7.412,2.199,7.51c1.482,0.098,2.899-3.106,3.166-7.156
					c0.267-4.05-0.718-7.412-2.2-7.51C178.437,212.104,177.019,215.308,176.752,219.357z"/>
				<g>
					<path style="fill:#FC6A5A;" d="M183.916,224.732c0,0-0.048,0.282-0.181,0.762c-0.143,0.476-0.333,1.167-0.66,1.961
						c-0.318,0.797-0.752,1.707-1.34,2.626c-0.58,0.92-1.338,1.849-2.346,2.57c-0.513,0.346-1.111,0.61-1.746,0.723
						c-0.637,0.135-1.299,0.002-1.851-0.208c-0.569-0.204-1.018-0.558-1.401-0.9c-0.384-0.345-0.701-0.71-0.949-1.069
						c-0.266-0.348-0.473-0.688-0.632-1.001c-0.175-0.303-0.313-0.573-0.413-0.803c-0.208-0.455-0.311-0.719-0.311-0.719
						s0.188,0.219,0.489,0.609c0.292,0.394,0.754,0.933,1.335,1.511c0.138,0.153,0.297,0.294,0.467,0.43
						c0.167,0.139,0.326,0.3,0.52,0.417c0.186,0.127,0.37,0.27,0.582,0.36c0.202,0.114,0.411,0.207,0.631,0.271
						c0.436,0.136,0.896,0.179,1.351,0.078c0.455-0.093,0.906-0.297,1.322-0.589c0.418-0.291,0.817-0.633,1.173-1.022
						c0.353-0.389,0.702-0.782,1.002-1.199c0.614-0.821,1.134-1.644,1.566-2.361c0.425-0.721,0.79-1.327,1.017-1.765
						C183.78,224.981,183.916,224.732,183.916,224.732z"/>
				</g>
				<g>
					<path style="fill:#FC6A5A;" d="M202.557,227.242c0,0,0.104,0.267,0.285,0.735c0.169,0.469,0.452,1.125,0.778,1.906
						c0.335,0.777,0.733,1.678,1.234,2.584c0.24,0.459,0.536,0.898,0.836,1.33c0.303,0.43,0.662,0.816,1.051,1.11
						c0.384,0.302,0.807,0.486,1.235,0.491c0.428-0.006,0.867-0.171,1.275-0.407c0.398-0.264,0.773-0.571,1.105-0.9
						c0.327-0.335,0.631-0.666,0.893-0.996c0.275-0.316,0.496-0.636,0.714-0.905c0.218-0.269,0.384-0.522,0.526-0.726
						c0.287-0.408,0.466-0.637,0.466-0.637s-0.093,0.271-0.282,0.738c-0.097,0.232-0.208,0.518-0.367,0.832
						c-0.157,0.315-0.31,0.686-0.551,1.052c-0.114,0.188-0.233,0.383-0.356,0.585c-0.144,0.191-0.292,0.389-0.445,0.593
						c-0.322,0.398-0.7,0.802-1.177,1.152c-0.491,0.323-1.083,0.644-1.792,0.657c-0.705,0.012-1.38-0.281-1.891-0.672
						c-1.02-0.815-1.621-1.878-2.082-2.873c-0.462-1.001-0.763-1.973-0.973-2.813c-0.217-0.838-0.316-1.555-0.397-2.05
						C202.57,227.53,202.557,227.242,202.557,227.242z"/>
				</g>
				<g>
					<path style="fill:#FC6A5A;" d="M139.823,222.581c-0.467-0.508-0.903-1.055-1.248-1.665c-0.169-0.307-0.323-0.624-0.445-0.96
						c-0.062-0.167-0.095-0.347-0.144-0.521c-0.044-0.176-0.037-0.366-0.057-0.551c-0.008-0.186,0.048-0.377,0.074-0.567
						c0.053-0.184,0.16-0.356,0.245-0.535c0.114-0.156,0.262-0.288,0.397-0.432c0.142-0.134,0.321-0.201,0.483-0.303
						c0.328-0.206,0.693-0.248,1.042-0.378l1.067-0.158l-0.313,0.346c-0.112-1.518-0.28-3.044-0.488-4.555
						c-0.181-1.516-0.412-3.024-0.704-4.516c-0.302-1.488-0.655-2.968-1.165-4.374c-0.26-0.699-0.519-1.398-0.876-2.029
						c-0.348-0.63-0.77-1.219-1.293-1.595c-0.258-0.196-0.545-0.299-0.836-0.362c-0.143,0.005-0.316-0.031-0.435-0.008l-0.571,0.079
						c-0.408,0.028-0.677,0.182-1.02,0.263c-0.324,0.115-0.646,0.292-0.965,0.445c-0.599,0.388-1.188,0.812-1.664,1.362
						l-0.363,0.407l-0.307,0.451c-0.223,0.292-0.374,0.625-0.539,0.953c-0.322,0.66-0.509,1.376-0.64,2.104
						c-0.028,0.367-0.064,0.737-0.072,1.107c0.028,0.368,0.016,0.745,0.076,1.113c0.112,0.739,0.323,1.466,0.63,2.159
						c0.177,0.334,0.331,0.685,0.528,1.01l0.641,0.955l-0.751-0.881c-0.242-0.303-0.42-0.65-0.633-0.977
						c-0.375-0.683-0.661-1.418-0.846-2.188c-0.096-0.383-0.119-0.78-0.182-1.174c-0.013-0.396,0.004-0.795,0.015-1.194
						c0.097-0.791,0.261-1.581,0.575-2.322c0.161-0.368,0.311-0.744,0.538-1.079l0.316-0.518l0.379-0.475
						c0.498-0.644,1.141-1.165,1.829-1.609c0.366-0.188,0.72-0.389,1.115-0.537c0.398-0.115,0.836-0.302,1.201-0.329l0.569-0.089
						c0.261-0.043,0.474-0.004,0.714-0.002c0.461,0.079,0.909,0.249,1.271,0.511c0.736,0.515,1.226,1.212,1.633,1.91
						c0.404,0.706,0.718,1.439,0.97,2.186c0.511,1.494,0.845,3.018,1.128,4.544c0.272,1.528,0.48,3.062,0.636,4.599
						c0.131,1.542,0.22,3.079,0.253,4.63l0.007,0.316l-0.32,0.03l-0.987,0.093c-0.299,0.099-0.648,0.121-0.913,0.277
						c-0.132,0.075-0.29,0.125-0.405,0.218c-0.105,0.102-0.231,0.19-0.33,0.299c-0.067,0.13-0.164,0.247-0.218,0.386
						c-0.027,0.149-0.091,0.292-0.098,0.449c0.006,0.158-0.018,0.318,0.008,0.479c0.032,0.161,0.046,0.325,0.09,0.486
						c0.087,0.323,0.207,0.638,0.346,0.949C139.061,221.43,139.412,222.026,139.823,222.581z"/>
				</g>
			</g>
		</g>
	</g>
	<g>
		<path style="fill:#FC6A5A;" d="M291.831,165.01c-29.246-61.296-4.281-135.387,100.082-110.825c0,0,65.501,18.958,52.089,89.958
			c-11.436,60.54-92.734,77.563-134.574,43.267c-11.009,7.499-39.51,25.869-7.829-7.563
			C297.778,175.484,294.473,170.547,291.831,165.01z"/>
		<g>
			<g>
				<path style="fill:#FFFFFF;" d="M372.589,128.227l-15.369-7.312c1.315-3.313,2.778-5.918,4.385-7.811
					c1.606-1.894,3.246-3.326,4.917-4.298c1.669-0.971,3.332-1.611,4.983-1.921c1.655-0.31,3.219-0.513,4.697-0.611
					c1.476-0.097,2.806-0.234,3.989-0.415c1.181-0.181,2.155-0.647,2.922-1.398c0.471-0.445,0.832-1.045,1.079-1.8
					c0.248-0.756,0.258-1.579,0.032-2.467c-0.228-0.889-0.761-1.803-1.597-2.738c-0.838-0.938-2.09-1.804-3.756-2.596
					c-1.091-0.519-2.433-1.037-4.029-1.554c-1.593-0.517-3.306-0.961-5.138-1.329c-1.831-0.371-3.683-0.637-5.556-0.805
					c-1.872-0.164-3.626-0.171-5.259-0.02l6.479-18.776c1.437-0.133,3.032-0.221,4.781-0.262c1.747-0.043,3.603,0.06,5.568,0.307
					c1.964,0.246,4.034,0.663,6.207,1.252c2.174,0.588,4.412,1.43,6.716,2.526c3.728,1.774,7.007,3.967,9.835,6.575
					c2.83,2.611,5.01,5.506,6.545,8.69c1.533,3.183,2.332,6.583,2.395,10.202c0.064,3.617-0.806,7.32-2.609,11.109
					c-1.371,2.881-2.879,4.996-4.527,6.351c-1.647,1.353-3.375,2.289-5.181,2.803c-1.807,0.516-3.68,0.778-5.615,0.786
					c-1.938,0.008-3.867,0.103-5.794,0.281c-1.925,0.182-3.828,0.625-5.705,1.329C376.108,125.032,374.307,126.332,372.589,128.227z
					 M369.152,141.312c-0.635,1.335-1.484,2.454-2.547,3.361c-1.065,0.907-2.233,1.586-3.507,2.04
					c-1.276,0.451-2.609,0.655-3.997,0.606c-1.391-0.047-2.738-0.382-4.04-1.001c-1.335-0.635-2.458-1.475-3.371-2.525
					c-0.916-1.047-1.598-2.21-2.05-3.483c-0.454-1.277-0.656-2.607-0.609-3.999c0.049-1.389,0.389-2.75,1.024-4.085
					c0.62-1.303,1.462-2.427,2.523-3.372c1.064-0.944,2.232-1.644,3.507-2.094c1.274-0.455,2.609-0.663,4.008-0.631
					c1.396,0.033,2.762,0.366,4.096,1.001c1.302,0.62,2.407,1.462,3.315,2.525c0.906,1.064,1.586,2.231,2.04,3.508
					c0.452,1.273,0.654,2.625,0.608,4.052C370.105,138.643,369.771,140.01,369.152,141.312z"/>
			</g>
			<g>
				<path style="fill:#FFFFFF;" d="M383.733,168.07l-9.067-9.312c1.821-2.024,3.559-3.502,5.212-4.43
					c1.653-0.93,3.207-1.521,4.661-1.774c1.452-0.253,2.813-0.27,4.078-0.054c1.267,0.217,2.442,0.486,3.526,0.809
					c1.082,0.322,2.071,0.577,2.967,0.761c0.894,0.184,1.715,0.108,2.463-0.226c0.455-0.194,0.873-0.528,1.25-1.003
					c0.378-0.476,0.604-1.062,0.677-1.758c0.073-0.697-0.067-1.493-0.417-2.384c-0.351-0.894-1.018-1.846-2.001-2.856
					c-0.644-0.661-1.467-1.388-2.473-2.181c-1.003-0.792-2.112-1.565-3.327-2.314c-1.213-0.751-2.469-1.433-3.766-2.05
					c-1.297-0.614-2.551-1.084-3.761-1.409l9.619-11.727c1.065,0.286,2.23,0.646,3.493,1.081c1.263,0.433,2.565,0.998,3.906,1.697
					c1.341,0.697,2.713,1.545,4.113,2.542s2.78,2.194,4.14,3.59c2.2,2.259,3.966,4.699,5.299,7.317
					c1.334,2.62,2.128,5.272,2.382,7.959c0.254,2.686-0.076,5.333-0.99,7.941c-0.914,2.607-2.519,5.029-4.814,7.264
					c-1.745,1.7-3.387,2.814-4.926,3.347c-1.539,0.532-3.024,0.744-4.454,0.633c-1.431-0.109-2.842-0.419-4.23-0.927
					c-1.39-0.508-2.797-0.952-4.224-1.335c-1.427-0.38-2.907-0.568-4.438-0.561C387.1,166.715,385.466,167.168,383.733,168.07z
					 M377.801,176.529c-0.809,0.787-1.714,1.364-2.715,1.731c-1.003,0.367-2.02,0.543-3.053,0.531
					c-1.033-0.016-2.042-0.223-3.023-0.626c-0.984-0.402-1.859-0.999-2.628-1.788c-0.787-0.809-1.369-1.709-1.745-2.702
					c-0.378-0.993-0.558-2.007-0.545-3.038c0.014-1.035,0.222-2.041,0.625-3.025c0.403-0.982,1.008-1.866,1.817-2.654
					c0.789-0.768,1.691-1.35,2.701-1.745c1.012-0.393,2.034-0.585,3.067-0.569c1.033,0.012,2.044,0.217,3.037,0.611
					c0.991,0.394,1.881,0.994,2.668,1.803c0.768,0.789,1.336,1.685,1.704,2.688c0.366,1.002,0.544,2.019,0.53,3.053
					c-0.014,1.031-0.227,2.053-0.639,3.063C379.192,174.87,378.59,175.76,377.801,176.529z"/>
			</g>
			<g>
				<path style="fill:#FFFFFF;" d="M332.191,137.353l-11.776,0.57c-0.282-2.453-0.243-4.523,0.119-6.204
					c0.36-1.682,0.892-3.094,1.594-4.234c0.701-1.139,1.506-2.075,2.412-2.805c0.909-0.731,1.797-1.368,2.667-1.911
					c0.869-0.542,1.636-1.062,2.299-1.56c0.662-0.497,1.104-1.101,1.326-1.81c0.142-0.426,0.165-0.91,0.069-1.452
					c-0.096-0.543-0.359-1.048-0.789-1.516c-0.431-0.468-1.055-0.851-1.872-1.148c-0.819-0.298-1.867-0.417-3.143-0.355
					c-0.836,0.04-1.825,0.164-2.969,0.371c-1.141,0.206-2.333,0.496-3.572,0.871c-1.239,0.373-2.457,0.817-3.655,1.328
					c-1.196,0.513-2.269,1.083-3.217,1.711l-2.195-13.584c0.834-0.552,1.778-1.128,2.833-1.726c1.052-0.598,2.219-1.144,3.5-1.636
					c1.28-0.493,2.68-0.916,4.199-1.269c1.519-0.353,3.161-0.572,4.927-0.658c2.857-0.138,5.577,0.126,8.157,0.792
					c2.583,0.667,4.862,1.72,6.841,3.161c1.978,1.441,3.58,3.255,4.804,5.443c1.224,2.187,1.906,4.733,2.046,7.636
					c0.107,2.207-0.121,3.993-0.683,5.359c-0.562,1.366-1.311,2.502-2.245,3.408c-0.934,0.907-1.992,1.68-3.171,2.319
					c-1.18,0.64-2.327,1.329-3.445,2.07c-1.115,0.741-2.132,1.635-3.047,2.68C333.293,134.25,332.619,135.634,332.191,137.353z
					 M334.379,146.467c0.05,1.023-0.102,1.984-0.454,2.886c-0.353,0.903-0.844,1.699-1.472,2.394
					c-0.631,0.693-1.378,1.254-2.242,1.679c-0.865,0.427-1.796,0.664-2.794,0.712c-1.023,0.049-1.984-0.096-2.885-0.437
					c-0.902-0.339-1.699-0.826-2.392-1.454c-0.695-0.631-1.254-1.377-1.681-2.242c-0.425-0.864-0.663-1.807-0.713-2.829
					c-0.048-0.998,0.098-1.96,0.436-2.885c0.341-0.925,0.824-1.734,1.455-2.427c0.629-0.695,1.375-1.26,2.24-1.698
					c0.863-0.437,1.806-0.681,2.828-0.731c0.998-0.048,1.948,0.104,2.851,0.456c0.901,0.353,1.699,0.843,2.394,1.474
					c0.693,0.629,1.259,1.388,1.699,2.274C334.087,144.525,334.331,145.469,334.379,146.467z"/>
			</g>
		</g>
	</g>
</g>
</svg>
